# xmcd
# 
# Track frame offsets:
#     150
#     19099
#     32591
#     46819
#     59715
#     73602
#     91465
#     118476
#     141627
#     161873
#     189144
#     202409
#     217488
#     238789
#     253702
# 
# Disc length: 3586
# 
# Revision: 2
# Processed by: cddbd v1.5.2PL0 Copyright (c) Steve Scherf et al.
# Submitted via: fre:ac v1.1beta1pre5
# 
DISCID=f60e000f
DTITLE=Lightnin' Hopkins - Rarities And Gems [CD2]
DYEAR=2013
DGENRE=Blues
TTITLE0=Little School Girl
TTITLE1=Little Boy Blue
TTITLE2=Sail On Little Girl
TTITLE3=I Hate I Got Married
TTITLE4=Jail House Blues
TTITLE5=Letter To My Back Door Friend
TTITLE6=I Heard My Children Crying
TTITLE7=I'm Gonna Get My Baby Somewhere
TTITLE8=Don't Treat That Man The Way You Treat Me
TTITLE9=There's A Good Rockin Tonight
TTITLE10=Ballin' The Jack
TTITLE11=The World's In A Tangle
TTITLE12=A Man Like Me Is Hard To Find
TTITLE13=All Night Long
TTITLE14=Baby Please Don't Go
EXTD=
EXTT0=
EXTT1=
EXTT2=
EXTT3=
EXTT4=
EXTT5=
EXTT6=
EXTT7=
EXTT8=
EXTT9=
EXTT10=
EXTT11=
EXTT12=
EXTT13=
EXTT14=
PLAYORDER=
